<svg width="24" height="24" viewBox="0 0 24 24" fill="none" xmlns="http://www.w3.org/2000/svg">
<path d="M12 0C9.62663 0 7.30655 0.703788 5.33316 2.02236C3.35977 3.34094 1.8217 5.21508 0.913451 7.4078C0.00519943 9.60051 -0.232441 12.0133 0.230582 14.3411C0.693605 16.6689 1.83649 18.807 3.51472 20.4853C5.19295 22.1635 7.33115 23.3064 9.65892 23.7694C11.9867 24.2324 14.3995 23.9948 16.5922 23.0865C18.7849 22.1783 20.6591 20.6402 21.9776 18.6668C23.2962 16.6934 24 14.3734 24 12C23.9965 8.81848 22.7311 5.76829 20.4814 3.51862C18.2317 1.26894 15.1815 0.00352914 12 0ZM12 20.7778C11.0175 19.628 10.2501 18.3106 9.73445 16.8889H14.27C13.9765 17.6929 13.6044 18.4659 13.1589 19.1967C12.8161 19.7543 12.4285 20.283 12 20.7778ZM9.05667 14.2222C8.83667 12.7489 8.83667 11.2511 9.05667 9.77778H14.9456C15.1656 11.2511 15.1656 12.7489 14.9456 14.2222H9.05667ZM2.66667 12C2.66664 11.2511 2.7573 10.5049 2.93667 9.77778H6.36112C6.17594 11.2535 6.17594 12.7465 6.36112 14.2222H2.93667C2.7573 13.4951 2.66664 12.7489 2.66667 12ZM12 3.22222C12.9825 4.37204 13.7499 5.68935 14.2656 7.11111H9.73223C10.0257 6.30713 10.3979 5.53412 10.8433 4.80333C11.1854 4.24582 11.5722 3.71704 12 3.22222ZM17.6367 9.77778H21.0611C21.4211 11.2374 21.4211 12.7626 21.0611 14.2222H17.6389C17.8241 12.7465 17.8241 11.2535 17.6389 9.77778H17.6367ZM19.9444 7.11111H17.0789C16.6785 5.76709 16.0992 4.48299 15.3567 3.29333C17.2613 4.03269 18.8727 5.37306 19.9467 7.11111H19.9444ZM8.64334 3.29333C7.90077 4.48299 7.3215 5.76709 6.92112 7.11111H4.05334C5.12726 5.37306 6.73875 4.03269 8.64334 3.29333ZM4.05334 16.8889H6.92112C7.3215 18.2329 7.90077 19.517 8.64334 20.7067C6.73875 19.9673 5.12726 18.6269 4.05334 16.8889ZM15.3567 20.7067C16.0992 19.517 16.6785 18.2329 17.0789 16.8889H19.9467C18.8727 18.6269 17.2613 19.9673 15.3567 20.7067Z" fill="#6B6B6B"/>
</svg>
