<svg width="22" height="22" viewBox="0 0 22 22" fill="none" xmlns="http://www.w3.org/2000/svg">
<path d="M16.0417 3.84526V2.65517C16.0417 1.95098 15.7036 1.27562 15.102 0.777682C14.5003 0.279741 13.6842 0 12.8333 0H9.16667C8.31576 0 7.49971 0.279741 6.89803 0.777682C6.29635 1.27562 5.95833 1.95098 5.95833 2.65517V3.84526C4.30969 4.03043 2.79786 4.70346 1.70249 5.73985C0.607117 6.77624 0.0023317 8.10586 0 9.48276V20.1034C0 20.6064 0.241443 21.0888 0.671214 21.4445C1.10098 21.8002 1.68388 22 2.29167 22H19.7083C20.3161 22 20.899 21.8002 21.3288 21.4445C21.7586 21.0888 22 20.6064 22 20.1034V9.48276C21.9977 8.10586 21.3929 6.77624 20.2975 5.73985C19.2021 4.70346 17.6903 4.03043 16.0417 3.84526ZM9.16667 2.27586H12.8333C12.9549 2.27586 13.0715 2.31582 13.1574 2.38696C13.2434 2.45809 13.2917 2.55457 13.2917 2.65517V3.7931H8.70833V2.65517C8.70833 2.55457 8.75662 2.45809 8.84258 2.38696C8.92853 2.31582 9.04511 2.27586 9.16667 2.27586ZM14.6667 14.4138H7.33333V13.6552C7.33333 13.5546 7.38162 13.4581 7.46758 13.387C7.55353 13.3158 7.67011 13.2759 7.79167 13.2759H14.2083C14.3299 13.2759 14.4465 13.3158 14.5324 13.387C14.6184 13.4581 14.6667 13.5546 14.6667 13.6552V14.4138ZM7.33333 16.6897H14.6667V19.7241H7.33333V16.6897ZM19.25 19.7241H17.4167V13.6552C17.4167 12.951 17.0786 12.2756 16.477 11.7777C15.8753 11.2797 15.0592 11 14.2083 11H7.79167C6.94076 11 6.12471 11.2797 5.52303 11.7777C4.92135 12.2756 4.58333 12.951 4.58333 13.6552V19.7241H2.75V9.48276C2.75 8.57736 3.1846 7.70905 3.95818 7.06884C4.73177 6.42863 5.78098 6.06897 6.875 6.06897H15.125C16.219 6.06897 17.2682 6.42863 18.0418 7.06884C18.8154 7.70905 19.25 8.57736 19.25 9.48276V19.7241ZM14.6667 8.72414C14.6667 9.02594 14.5218 9.31537 14.2639 9.52878C14.0061 9.74218 13.6563 9.86207 13.2917 9.86207H8.70833C8.34366 9.86207 7.99392 9.74218 7.73606 9.52878C7.4782 9.31537 7.33333 9.02594 7.33333 8.72414C7.33333 8.42234 7.4782 8.1329 7.73606 7.9195C7.99392 7.7061 8.34366 7.58621 8.70833 7.58621H13.2917C13.6563 7.58621 14.0061 7.7061 14.2639 7.9195C14.5218 8.1329 14.6667 8.42234 14.6667 8.72414Z" fill="#6B6B6B"/>
</svg>
