<svg width="22" height="22" viewBox="0 0 22 22" fill="none" xmlns="http://www.w3.org/2000/svg">
<path d="M8.8 8.8C8.8 8.44991 8.93907 8.11417 9.18662 7.86662C9.43417 7.61907 9.76991 7.48 10.12 7.48H16.28C16.6301 7.48 16.9658 7.61907 17.2134 7.86662C17.4609 8.11417 17.6 8.44991 17.6 8.8C17.6 9.15009 17.4609 9.48583 17.2134 9.73338C16.9658 9.98093 16.6301 10.12 16.28 10.12H10.12C9.76991 10.12 9.43417 9.98093 9.18662 9.73338C8.93907 9.48583 8.8 9.15009 8.8 8.8ZM16.28 11.88H10.12C9.76991 11.88 9.43417 12.0191 9.18662 12.2666C8.93907 12.5142 8.8 12.8499 8.8 13.2C8.8 13.5501 8.93907 13.8858 9.18662 14.1334C9.43417 14.3809 9.76991 14.52 10.12 14.52H16.28C16.6301 14.52 16.9658 14.3809 17.2134 14.1334C17.4609 13.8858 17.6 13.5501 17.6 13.2C17.6 12.8499 17.4609 12.5142 17.2134 12.2666C16.9658 12.0191 16.6301 11.88 16.28 11.88ZM22 2.2V19.8C22 20.3835 21.7682 20.9431 21.3556 21.3556C20.9431 21.7682 20.3835 22 19.8 22H2.2C1.61652 22 1.05695 21.7682 0.644365 21.3556C0.231785 20.9431 0 20.3835 0 19.8V2.2C0 1.61652 0.231785 1.05695 0.644365 0.644365C1.05695 0.231785 1.61652 0 2.2 0H19.8C20.3835 0 20.9431 0.231785 21.3556 0.644365C21.7682 1.05695 22 1.61652 22 2.2ZM2.64 19.36H4.4V2.64H2.64V19.36ZM19.36 2.64H7.04V19.36H19.36V2.64Z" fill="#6B6B6B"/>
</svg>
