<svg width="15" height="28" viewBox="0 0 15 28" fill="none" xmlns="http://www.w3.org/2000/svg">
<path d="M11.2329 12.6666H4.09959C3.98848 12.9333 3.85515 13.1946 3.69959 13.4506C3.54404 13.7066 3.35515 13.9231 3.13293 14.1L4.09959 24.6666H11.2329L12.1996 14.1C11.9774 13.9 11.7885 13.6777 11.6329 13.4333C11.4774 13.1888 11.344 12.9333 11.2329 12.6666ZM3.73293 7.33329L3.36626 8.79996C3.52181 8.97774 3.66093 9.16663 3.78359 9.36662C3.90626 9.56662 4.01159 9.77774 4.09959 9.99996H11.2329C11.3218 9.77774 11.4276 9.56662 11.5503 9.36662C11.6729 9.16663 11.8116 8.97774 11.9663 8.79996L11.5996 7.33329H3.73293ZM4.09959 27.3333C3.4107 27.3333 2.8107 27.1053 2.29959 26.6493C1.78848 26.1933 1.49959 25.6213 1.43293 24.9333L0.399593 13.4C0.377371 13.1777 0.416482 12.9724 0.516926 12.784C0.617371 12.5955 0.767149 12.4453 0.96626 12.3333C1.14404 12.2222 1.29959 12.0888 1.43293 11.9333C1.56626 11.7777 1.63293 11.5888 1.63293 11.3666C1.63293 11.1666 1.58848 10.9831 1.49959 10.816C1.4107 10.6488 1.27737 10.5102 1.09959 10.4C0.877371 10.2888 0.710704 10.1168 0.599593 9.88396C0.488482 9.65107 0.46626 9.41196 0.532927 9.16663L1.39959 5.66663C1.46626 5.35551 1.62181 5.11107 1.86626 4.93329C2.1107 4.75551 2.38848 4.66663 2.69959 4.66663H6.33293V3.33329H4.33293V0.666626H10.9996V3.33329H8.99959V4.66663H12.6329C12.944 4.66663 13.2165 4.75551 13.4503 4.93329C13.684 5.11107 13.8338 5.35551 13.8996 5.66663L14.7996 9.16663C14.8663 9.41107 14.844 9.65018 14.7329 9.88396C14.6218 10.1177 14.4551 10.2897 14.2329 10.4C14.0551 10.4888 13.9165 10.6111 13.8169 10.7666C13.7174 10.9222 13.6671 11.1 13.6663 11.3C13.6663 11.5444 13.7276 11.7502 13.8503 11.9173C13.9729 12.0844 14.1338 12.2231 14.3329 12.3333C14.532 12.4435 14.6876 12.5937 14.7996 12.784C14.9116 12.9742 14.956 13.1795 14.9329 13.4L13.8996 24.9C13.8329 25.5888 13.544 26.1666 13.0329 26.6333C12.5218 27.1 11.9218 27.3333 11.2329 27.3333H4.09959Z" fill="#6B6B6B"/>
</svg>
