<svg width="24" height="22" viewBox="0 0 24 22" fill="none" xmlns="http://www.w3.org/2000/svg">
<path d="M12 0C8.81849 0.00363949 5.7683 1.30862 3.51863 3.62864C1.26896 5.94865 0.00354255 9.09422 1.3416e-05 12.3752V18.792C-0.00167463 19.3834 0.155965 19.9636 0.455353 20.468C0.75474 20.9724 1.18411 21.3811 1.69557 21.6486C2.20872 21.919 2.78462 22.0371 3.35906 21.9898C3.9335 21.9425 4.4839 21.7315 4.9489 21.3805C6.24445 20.4088 8.52001 19.2503 12 19.2503C15.48 19.2503 17.7556 20.4076 19.0511 21.3793C19.5147 21.7294 20.0633 21.9401 20.636 21.9883C21.2087 22.0365 21.7831 21.9201 22.2956 21.6522C22.8081 21.3843 23.2387 20.9752 23.5395 20.4703C23.8404 19.9655 23.9997 19.3846 24 18.792V12.3752C23.9965 9.09422 22.7311 5.94865 20.4814 3.62864C18.2317 1.30862 15.1815 0.00363949 12 0ZM21.3333 12.3752V12.5895C20.1605 11.909 18.9205 11.3597 17.6344 10.9509C17.2968 8.23192 16.4091 5.61637 15.0289 3.2737C16.8669 3.92654 18.4618 5.15399 19.5918 6.78526C20.7217 8.41654 21.3305 10.3705 21.3333 12.3752ZM14.8378 10.2989C12.9562 10.0117 11.0438 10.0117 9.16223 10.2989C9.62416 7.8628 10.5923 5.55875 12 3.54527C13.4075 5.55888 14.3756 7.86287 14.8378 10.2989ZM8.97112 3.2737C7.59087 5.61637 6.70318 8.23192 6.36557 10.9509C5.07952 11.3597 3.83952 11.909 2.66668 12.5895V12.3752C2.66954 10.3705 3.2783 8.41654 4.40825 6.78526C5.5382 5.15399 7.13314 3.92654 8.97112 3.2737ZM21.0944 19.2011C21.0196 19.2415 20.9351 19.2591 20.8508 19.2518C20.7666 19.2445 20.6861 19.2126 20.6189 19.1598C19 17.9452 16.1967 16.5003 12 16.5003C7.80334 16.5003 5.00001 17.9452 3.38112 19.1564C3.31386 19.2092 3.2334 19.2411 3.14917 19.2484C3.06494 19.2557 2.98043 19.2381 2.90557 19.1976C2.83161 19.1616 2.76955 19.1039 2.72708 19.0318C2.68462 18.9597 2.66361 18.8763 2.66668 18.792V15.8288C5.41138 13.8776 8.66633 12.8327 12 12.8327C15.3337 12.8327 18.5886 13.8776 21.3333 15.8288V18.792C21.3364 18.8763 21.3154 18.9597 21.2729 19.0318C21.2305 19.1039 21.1684 19.1616 21.0944 19.1976V19.2011Z" fill="#6B6B6B"/>
</svg>
