<svg width="23" height="23" viewBox="0 0 23 23" fill="none" xmlns="http://www.w3.org/2000/svg">
<path d="M22.121 4.431C22.0084 4.29611 21.8676 4.1876 21.7084 4.11312C21.5493 4.03865 21.3757 4.00003 21.2 4H5.4L4.853 0.985C4.80268 0.708678 4.65702 0.458761 4.44141 0.278775C4.22579 0.0987881 3.95387 0.00013634 3.673 0H1.2C0.88174 0 0.576515 0.126428 0.351472 0.351472C0.126428 0.576516 0 0.88174 0 1.2C0 1.51826 0.126428 1.82348 0.351472 2.04853C0.576515 2.27357 0.88174 2.4 1.2 2.4H2.671L5.162 16.1C5.22888 16.4639 5.36721 16.8109 5.569 17.121C5.21175 17.539 4.96824 18.042 4.86196 18.5815C4.75568 19.121 4.79022 19.6788 4.96224 20.2011C5.13427 20.7234 5.43797 21.1925 5.84406 21.5633C6.25015 21.934 6.74493 22.1939 7.28067 22.3178C7.81641 22.4416 8.37503 22.4254 8.90266 22.2706C9.43029 22.1157 9.90912 21.8275 10.293 21.4338C10.6768 21.0401 10.9527 20.5541 11.0941 20.0227C11.2354 19.4913 11.2375 18.9324 11.1 18.4H14.5C14.3332 19.0461 14.3725 19.7282 14.6125 20.3509C14.8525 20.9735 15.2811 21.5056 15.8385 21.8726C16.3958 22.2396 17.0539 22.4232 17.7207 22.3977C18.3875 22.3722 19.0297 22.1388 19.5573 21.7303C20.085 21.3218 20.4717 20.7586 20.6635 20.1194C20.8552 19.4802 20.8423 18.7971 20.6266 18.1656C20.4109 17.5342 20.0032 16.9859 19.4605 16.5976C18.9178 16.2093 18.2673 16.0003 17.6 16H7.917C7.82348 15.9999 7.73296 15.967 7.66116 15.9071C7.58937 15.8472 7.54083 15.764 7.524 15.672L7.292 14.4H18.41C19.0659 14.4 19.701 14.1698 20.2044 13.7494C20.7079 13.3291 21.0479 12.7453 21.165 12.1L22.381 5.414C22.4123 5.24111 22.4052 5.06346 22.3603 4.8936C22.3153 4.72374 22.2337 4.56583 22.121 4.431ZM8.8 19.2C8.8 19.3582 8.75308 19.5129 8.66518 19.6445C8.57727 19.776 8.45233 19.8786 8.30615 19.9391C8.15997 19.9997 7.99911 20.0155 7.84393 19.9846C7.68874 19.9538 7.5462 19.8776 7.43431 19.7657C7.32243 19.6538 7.24624 19.5113 7.21537 19.3561C7.1845 19.2009 7.20035 19.04 7.2609 18.8939C7.32145 18.7477 7.42398 18.6227 7.55554 18.5348C7.6871 18.4469 7.84177 18.4 8 18.4C8.21217 18.4 8.41566 18.4843 8.56568 18.6343C8.71571 18.7843 8.8 18.9878 8.8 19.2ZM17.6 20C17.4418 20 17.2871 19.9531 17.1555 19.8652C17.024 19.7773 16.9214 19.6523 16.8609 19.5061C16.8003 19.36 16.7845 19.1991 16.8154 19.0439C16.8462 18.8887 16.9224 18.7462 17.0343 18.6343C17.1462 18.5224 17.2887 18.4462 17.4439 18.4154C17.5991 18.3845 17.76 18.4003 17.9061 18.4609C18.0523 18.5214 18.1773 18.624 18.2652 18.7555C18.3531 18.8871 18.4 19.0418 18.4 19.2C18.4 19.4122 18.3157 19.6157 18.1657 19.7657C18.0157 19.9157 17.8122 20 17.6 20ZM18.8 11.672C18.7833 11.7635 18.7352 11.8463 18.664 11.9061C18.5928 11.966 18.503 11.9992 18.41 12H6.856L5.838 6.4H19.762L18.8 11.672Z" fill="#6B6B6B"/>
</svg>
