<svg width="22" height="22" viewBox="0 0 22 22" fill="none" xmlns="http://www.w3.org/2000/svg">
<path d="M18.04 0H3.96C2.90974 0 1.9025 0.417213 1.15986 1.15986C0.417213 1.9025 0 2.90974 0 3.96V18.04C0 19.0903 0.417213 20.0975 1.15986 20.8401C1.9025 21.5828 2.90974 22 3.96 22H18.04C19.0903 22 20.0975 21.5828 20.8401 20.8401C21.5828 20.0975 22 19.0903 22 18.04V3.96C22 2.90974 21.5828 1.9025 20.8401 1.15986C20.0975 0.417213 19.0903 0 18.04 0ZM19.36 18.04C19.36 18.3901 19.2209 18.7258 18.9734 18.9734C18.7258 19.2209 18.3901 19.36 18.04 19.36H3.96C3.60991 19.36 3.27417 19.2209 3.02662 18.9734C2.77907 18.7258 2.64 18.3901 2.64 18.04V3.96C2.64 3.60991 2.77907 3.27417 3.02662 3.02662C3.27417 2.77907 3.60991 2.64 3.96 2.64H18.04C18.3901 2.64 18.7258 2.77907 18.9734 3.02662C19.2209 3.27417 19.36 3.60991 19.36 3.96V18.04ZM9.24 6.16C9.24 6.5081 9.13678 6.84837 8.94339 7.1378C8.75 7.42723 8.47512 7.65282 8.15352 7.78603C7.83192 7.91924 7.47805 7.95409 7.13664 7.88618C6.79523 7.81827 6.48163 7.65065 6.23549 7.40451C5.98935 7.15837 5.82173 6.84477 5.75382 6.50336C5.68591 6.16195 5.72076 5.80808 5.85397 5.48648C5.98718 5.16488 6.21277 4.89 6.5022 4.69661C6.79163 4.50322 7.13191 4.4 7.48 4.4C7.94678 4.4 8.39444 4.58543 8.72451 4.91549C9.05457 5.24556 9.24 5.69322 9.24 6.16ZM16.28 6.16C16.28 6.5081 16.1768 6.84837 15.9834 7.1378C15.79 7.42723 15.5151 7.65282 15.1935 7.78603C14.8719 7.91924 14.518 7.95409 14.1766 7.88618C13.8352 7.81827 13.5216 7.65065 13.2755 7.40451C13.0294 7.15837 12.8617 6.84477 12.7938 6.50336C12.7259 6.16195 12.7608 5.80808 12.894 5.48648C13.0272 5.16488 13.2528 4.89 13.5422 4.69661C13.8316 4.50322 14.1719 4.4 14.52 4.4C14.9868 4.4 15.4344 4.58543 15.7645 4.91549C16.0946 5.24556 16.28 5.69322 16.28 6.16ZM9.24 11C9.24 11.3481 9.13678 11.6884 8.94339 11.9778C8.75 12.2672 8.47512 12.4928 8.15352 12.626C7.83192 12.7592 7.47805 12.7941 7.13664 12.7262C6.79523 12.6583 6.48163 12.4906 6.23549 12.2445C5.98935 11.9984 5.82173 11.6848 5.75382 11.3434C5.68591 11.002 5.72076 10.6481 5.85397 10.3265C5.98718 10.0049 6.21277 9.73001 6.5022 9.53661C6.79163 9.34322 7.13191 9.24 7.48 9.24C7.94678 9.24 8.39444 9.42543 8.72451 9.75549C9.05457 10.0856 9.24 10.5332 9.24 11ZM16.28 11C16.28 11.3481 16.1768 11.6884 15.9834 11.9778C15.79 12.2672 15.5151 12.4928 15.1935 12.626C14.8719 12.7592 14.518 12.7941 14.1766 12.7262C13.8352 12.6583 13.5216 12.4906 13.2755 12.2445C13.0294 11.9984 12.8617 11.6848 12.7938 11.3434C12.7259 11.002 12.7608 10.6481 12.894 10.3265C13.0272 10.0049 13.2528 9.73001 13.5422 9.53661C13.8316 9.34322 14.1719 9.24 14.52 9.24C14.9868 9.24 15.4344 9.42543 15.7645 9.75549C16.0946 10.0856 16.28 10.5332 16.28 11ZM9.24 15.84C9.24 16.1881 9.13678 16.5284 8.94339 16.8178C8.75 17.1072 8.47512 17.3328 8.15352 17.466C7.83192 17.5992 7.47805 17.6341 7.13664 17.5662C6.79523 17.4983 6.48163 17.3306 6.23549 17.0845C5.98935 16.8384 5.82173 16.5248 5.75382 16.1834C5.68591 15.842 5.72076 15.4881 5.85397 15.1665C5.98718 14.8449 6.21277 14.57 6.5022 14.3766C6.79163 14.1832 7.13191 14.08 7.48 14.08C7.94678 14.08 8.39444 14.2654 8.72451 14.5955C9.05457 14.9256 9.24 15.3732 9.24 15.84ZM16.28 15.84C16.28 16.1881 16.1768 16.5284 15.9834 16.8178C15.79 17.1072 15.5151 17.3328 15.1935 17.466C14.8719 17.5992 14.518 17.6341 14.1766 17.5662C13.8352 17.4983 13.5216 17.3306 13.2755 17.0845C13.0294 16.8384 12.8617 16.5248 12.7938 16.1834C12.7259 15.842 12.7608 15.4881 12.894 15.1665C13.0272 14.8449 13.2528 14.57 13.5422 14.3766C13.8316 14.1832 14.1719 14.08 14.52 14.08C14.9868 14.08 15.4344 14.2654 15.7645 14.5955C16.0946 14.9256 16.28 15.3732 16.28 15.84Z" fill="#6B6B6B"/>
</svg>
