<svg width="26" height="22" viewBox="0 0 26 22" fill="none" xmlns="http://www.w3.org/2000/svg">
<path d="M25.6364 9.9341L19.7569 0.9801C19.5591 0.678681 19.2911 0.431512 18.9766 0.260536C18.6621 0.0895603 18.3109 6.65493e-05 17.9542 0H8.04578C7.68905 6.65493e-05 7.33786 0.0895603 7.02338 0.260536C6.70891 0.431512 6.44087 0.678681 6.24306 0.9801L0.363649 9.9341C0.191898 10.1958 0.0774017 10.4918 0.0278776 10.8023C-0.0216464 11.1127 -0.00504655 11.4303 0.0765582 11.7337L2.39821 20.3786C2.5232 20.8442 2.79548 21.2551 3.17311 21.5481C3.55073 21.8411 4.01276 21.9999 4.48801 22H7.36651C7.65105 22 7.9328 21.9431 8.19568 21.8325C8.45856 21.722 8.69742 21.5599 8.89862 21.3556C9.09982 21.1513 9.25942 20.9088 9.36831 20.6419C9.47719 20.375 9.53324 20.0889 9.53324 19.8V18.48H16.4668V19.8C16.4668 20.3835 16.695 20.9431 17.1014 21.3556C17.5077 21.7682 18.0588 22 18.6335 22H21.512C21.9872 21.9999 22.4493 21.8411 22.8269 21.5481C23.2045 21.2551 23.4768 20.8442 23.6018 20.3786L25.9234 11.7337C26.005 11.4303 26.0216 11.1127 25.9721 10.8023C25.9226 10.4918 25.8081 10.1958 25.6364 9.9341ZM8.2332 15.84V4.6904L9.53324 5.5154V11.88C9.53324 12.2301 9.67021 12.5658 9.91401 12.8134C10.1578 13.0609 10.4885 13.2 10.8333 13.2C11.1781 13.2 11.5087 13.0609 11.7525 12.8134C11.9963 12.5658 12.1333 12.2301 12.1333 11.88V7.1665L12.311 7.2765C12.5176 7.40762 12.7563 7.47714 13 7.47714C13.2437 7.47714 13.4824 7.40762 13.689 7.2765L13.8667 7.1665V11C13.8667 11.3501 14.0037 11.6858 14.2475 11.9334C14.4913 12.1809 14.8219 12.32 15.1667 12.32C15.5115 12.32 15.8422 12.1809 16.086 11.9334C16.3298 11.6858 16.4668 11.3501 16.4668 11V5.5154L17.7668 4.6904V15.84H8.2332ZM13 4.6035L9.90808 2.64H16.0919L13 4.6035ZM4.81952 19.36L2.63655 11.2321L5.63313 6.6682V16.28C5.63335 16.7079 5.75644 17.1264 5.98735 17.4843C6.21825 17.8423 6.54694 18.1241 6.93316 18.2952V19.36H4.81952ZM21.1783 19.36H19.0668V18.2952C19.4531 18.1241 19.7817 17.8423 20.0127 17.4843C20.2436 17.1264 20.3667 16.7079 20.3669 16.28V6.6682L23.3635 11.2321L21.1783 19.36Z" fill="#6B6B6B"/>
</svg>
