<svg width="23" height="23" viewBox="0 0 23 23" fill="none" xmlns="http://www.w3.org/2000/svg">
<path d="M18.3646 6.65182H1.58495C1.28827 6.65182 1.00374 6.78059 0.793952 7.0098C0.584165 7.23901 0.466309 7.54989 0.466309 7.87404V12.7629C0.469815 15.3319 1.35957 17.8049 2.95809 19.6889H1.58495C1.28827 19.6889 1.00374 19.8176 0.793952 20.0468C0.584165 20.276 0.466309 20.5869 0.466309 20.9111C0.466309 21.2352 0.584165 21.5461 0.793952 21.7753C1.00374 22.0045 1.28827 22.1333 1.58495 22.1333H17.9917C18.2884 22.1333 18.5729 22.0045 18.7827 21.7753C18.9925 21.5461 19.1104 21.2352 19.1104 20.9111C19.1104 20.5869 18.9925 20.276 18.7827 20.0468C18.5729 19.8176 18.2884 19.6889 17.9917 19.6889H16.6186C17.4224 18.7404 18.055 17.6346 18.483 16.4296C19.5502 16.3959 20.5633 15.9089 21.3071 15.0721C22.0509 14.2353 22.4668 13.1146 22.4663 11.9481V11.1333C22.4651 9.94515 22.0325 8.80605 21.2636 7.9659C20.4946 7.12575 19.4521 6.65317 18.3646 6.65182ZM16.8731 12.7629C16.8707 14.2001 16.5035 15.6084 15.8123 16.8311C15.1211 18.0538 14.1329 19.0431 12.9578 19.6889H6.61885C5.44374 19.0431 4.45562 18.0538 3.7644 16.8311C3.07318 15.6084 2.70596 14.2001 2.7036 12.7629V9.09626H16.8731V12.7629ZM20.229 11.9481C20.2287 12.3549 20.1169 12.7522 19.908 13.0889C19.6992 13.4257 19.4029 13.6864 19.0572 13.8375C19.0928 13.4806 19.1105 13.1219 19.1104 12.7629V9.26737C19.4427 9.42585 19.7255 9.68677 19.9242 10.0182C20.1229 10.3496 20.2288 10.7371 20.229 11.1333V11.9481ZM4.94088 3.79997V1.35552C4.94088 1.03137 5.05874 0.720493 5.26853 0.491281C5.47831 0.26207 5.76285 0.133301 6.05953 0.133301C6.35621 0.133301 6.64074 0.26207 6.85053 0.491281C7.06032 0.720493 7.17817 1.03137 7.17817 1.35552V3.79997C7.17817 4.12412 7.06032 4.435 6.85053 4.66421C6.64074 4.89342 6.35621 5.02219 6.05953 5.02219C5.76285 5.02219 5.47831 4.89342 5.26853 4.66421C5.05874 4.435 4.94089 4.12412 4.94088 3.79997ZM8.6697 3.79997V1.35552C8.6697 1.03137 8.78755 0.720493 8.99734 0.491281C9.20713 0.26207 9.49166 0.133301 9.78834 0.133301C10.085 0.133301 10.3696 0.26207 10.5793 0.491281C10.7891 0.720493 10.907 1.03137 10.907 1.35552V3.79997C10.907 4.12412 10.7891 4.435 10.5793 4.66421C10.3696 4.89342 10.085 5.02219 9.78834 5.02219C9.49166 5.02219 9.20713 4.89342 8.99734 4.66421C8.78755 4.435 8.6697 4.12412 8.6697 3.79997ZM12.3985 3.79997V1.35552C12.3985 1.03137 12.5164 0.720493 12.7262 0.491281C12.9359 0.26207 13.2205 0.133301 13.5172 0.133301C13.8138 0.133301 14.0984 0.26207 14.3082 0.491281C14.5179 0.720493 14.6358 1.03137 14.6358 1.35552V3.79997C14.6358 4.12412 14.5179 4.435 14.3082 4.66421C14.0984 4.89342 13.8138 5.02219 13.5172 5.02219C13.2205 5.02219 12.9359 4.89342 12.7262 4.66421C12.5164 4.435 12.3985 4.12412 12.3985 3.79997Z" fill="#6B6B6B"/>
</svg>
