<svg width="24" height="25" viewBox="0 0 24 25" fill="none" xmlns="http://www.w3.org/2000/svg">
<path d="M22.8444 5.45667L13.0667 0.265875C12.7399 0.0914591 12.373 0 12 0C11.627 0 11.2601 0.0914591 10.9333 0.265875L1.15556 5.45667C0.805686 5.64232 0.513781 5.91588 0.310463 6.24863C0.107145 6.58138 -9.22656e-05 6.96106 5.95644e-08 7.34785V17.6518C-9.22656e-05 18.0386 0.107145 18.4183 0.310463 18.7511C0.513781 19.0838 0.805686 19.3574 1.15556 19.543L10.9333 24.7338C11.26 24.9084 11.627 25 12 25C12.373 25 12.74 24.9084 13.0667 24.7338L22.8444 19.543C23.1943 19.3574 23.4862 19.0838 23.6895 18.7511C23.8929 18.4183 24.0001 18.0386 24 17.6518V7.34785C24.0001 6.96106 23.8929 6.58138 23.6895 6.24863C23.4862 5.91588 23.1943 5.64232 22.8444 5.45667ZM12 2.64737L20 6.89634L17.6189 8.16036L9.61889 3.91247L12 2.64737ZM12 11.1421L4 6.89634L6.84 5.3877L14.84 9.63451L12 11.1421ZM2.66667 9.13666L10.6667 13.3824V21.6443L2.66667 17.3965V9.13666ZM13.3333 21.6443V13.3824L16 11.9675V15.0861C16 15.429 16.1405 15.7579 16.3905 16.0005C16.6406 16.243 16.9797 16.3792 17.3333 16.3792C17.687 16.3792 18.0261 16.243 18.2761 16.0005C18.5262 15.7579 18.6667 15.429 18.6667 15.0861V10.5515L21.3333 9.13666V17.3965L13.3333 21.6443Z" fill="#6B6B6B"/>
</svg>
