<svg width="28" height="22" viewBox="0 0 28 22" fill="none" xmlns="http://www.w3.org/2000/svg">
<path d="M26.3086 3.52272L21.3005 0.509383C21.1084 0.393334 20.8892 0.33253 20.6662 0.333383H17.333C17.0015 0.333383 16.6836 0.46824 16.4492 0.708286C16.2148 0.948333 16.0831 1.27391 16.0831 1.61338C16.0831 2.17918 15.8636 2.7218 15.4729 3.12188C15.0822 3.52195 14.5523 3.74672 13.9998 3.74672C13.4473 3.74672 12.9175 3.52195 12.5268 3.12188C12.1361 2.7218 11.9166 2.17918 11.9166 1.61338C11.9166 1.27391 11.7849 0.948333 11.5505 0.708286C11.3161 0.46824 10.9982 0.333383 10.6667 0.333383H7.33351C7.11106 0.333237 6.89267 0.394398 6.70125 0.510449L1.69109 3.52272C1.24001 3.79846 0.906108 4.23718 0.755154 4.75246C0.6042 5.26774 0.647136 5.82223 0.875504 6.30671L2.73999 10.232C2.90623 10.5903 3.16849 10.8929 3.4962 11.1044C3.82391 11.3159 4.20357 11.4277 4.59094 11.4267H6.08357V19.5334C6.08357 20.0992 6.30306 20.6418 6.69374 21.0419C7.08442 21.4419 7.61429 21.6667 8.1668 21.6667H19.8329C20.3854 21.6667 20.9153 21.4419 21.3059 21.0419C21.6966 20.6418 21.9161 20.0992 21.9161 19.5334V11.4267H23.4077C23.7943 11.4273 24.1732 11.3157 24.5004 11.1049C24.8276 10.894 25.0898 10.5925 25.2566 10.2352L27.1242 6.30671C27.3525 5.82223 27.3955 5.26774 27.2445 4.75246C27.0936 4.23718 26.7597 3.79846 26.3086 3.52272ZM4.87218 8.86671L3.28788 5.53125L6.08357 3.85338V8.86671H4.87218ZM19.4162 19.1067H8.58345V2.89338H9.59069C9.86226 3.87693 10.4399 4.7428 11.2359 5.35943C12.032 5.97606 13.0028 6.30972 14.0009 6.30972C14.999 6.30972 15.9698 5.97606 16.7658 5.35943C17.5618 4.7428 18.1395 3.87693 18.4111 2.89338H19.4162V19.1067ZM23.1265 8.86671H21.9161V3.85338L24.7108 5.53445L23.1265 8.86671Z" fill="#6B6B6B"/>
</svg>
